<?xml version="1.0" encoding="utf-8" standalone="no"?>
<!DOCTYPE svg PUBLIC "-//W3C//DTD SVG 1.1//EN"
  "http://www.w3.org/Graphics/SVG/1.1/DTD/svg11.dtd">
<!-- Created with matplotlib (https://matplotlib.org/) -->
<svg height="345.6pt" version="1.1" viewBox="0 0 460.8 345.6" width="460.8pt" xmlns="http://www.w3.org/2000/svg" xmlns:xlink="http://www.w3.org/1999/xlink">
 <defs>
  <style type="text/css">
*{stroke-linecap:butt;stroke-linejoin:round;}
  </style>
 </defs>
 <g id="figure_1">
  <g id="patch_1">
   <path d="M 0 345.6 
L 460.8 345.6 
L 460.8 0 
L 0 0 
z
" style="fill:#ffffff;"/>
  </g>
  <g id="axes_1">
   <g id="patch_2">
    <path d="M 36.07625 306.0475 
L 447.48 306.0475 
L 447.48 26.655 
L 36.07625 26.655 
z
" style="fill:#ffffff;"/>
   </g>
   <g id="matplotlib.axis_1">
    <g id="xtick_1">
     <g id="line2d_1">
      <defs>
       <path d="M 0 0 
L 0 3.5 
" id="m6b63fa2f82" style="stroke:#000000;stroke-width:0.8;"/>
      </defs>
      <g>
       <use style="stroke:#000000;stroke-width:0.8;" x="54.77642" xlink:href="#m6b63fa2f82" y="306.0475"/>
      </g>
     </g>
     <g id="text_1">
      <!-- 0 -->
      <defs>
       <path d="M 3.125 29.296875 
Q 3.90625 50 6.4375 56.046875 
Q 8.984375 62.109375 13.671875 66.015625 
Q 18.359375 69.921875 25.1875 69.921875 
Q 32.03125 69.921875 37.109375 64.25 
Q 42.1875 58.59375 43.75 50 
Q 45.3125 41.40625 44.71875 30.265625 
Q 44.140625 19.140625 40.8125 12.109375 
Q 37.5 5.078125 30.859375 2.34375 
Q 24.21875 -0.390625 17.578125 2.921875 
Q 10.9375 6.25 8.203125 11.71875 
Q 5.46875 17.1875 4.296875 23.234375 
Q 3.125 29.296875 3.90625 50 
z
M 12.890625 52.734375 
Q 10.546875 31.25 12.5 22.84375 
Q 14.453125 14.453125 18.9375 10.9375 
Q 23.4375 7.421875 28.125 9.5625 
Q 32.8125 11.71875 34.953125 18.15625 
Q 37.109375 24.609375 37.109375 32.21875 
Q 37.109375 39.84375 36.515625 46.09375 
Q 35.9375 52.34375 33 57.421875 
Q 30.078125 62.5 25.1875 62.6875 
Q 20.3125 62.890625 16.59375 57.8125 
Q 12.890625 52.734375 10.546875 31.25 
z
" id="SimHei-48"/>
      </defs>
      <g transform="translate(52.27642 319.9225)scale(0.1 -0.1)">
       <use xlink:href="#SimHei-48"/>
      </g>
     </g>
    </g>
    <g id="xtick_2">
     <g id="line2d_2">
      <g>
       <use style="stroke:#000000;stroke-width:0.8;" x="128.110422" xlink:href="#m6b63fa2f82" y="306.0475"/>
      </g>
     </g>
     <g id="text_2">
      <!-- 20 -->
      <defs>
       <path d="M 4.6875 3.90625 
Q 5.078125 9.765625 10.15625 14.453125 
Q 15.234375 19.140625 23.046875 29.09375 
Q 30.859375 39.0625 33.203125 44.53125 
Q 35.546875 50 34.953125 53.90625 
Q 34.375 57.8125 31.25 60.34375 
Q 28.125 62.890625 24.015625 62.5 
Q 19.921875 62.109375 16.203125 59.375 
Q 12.5 56.640625 10.546875 51.171875 
L 3.125 52.34375 
Q 6.25 61.328125 11.125 65.421875 
Q 16.015625 69.53125 22.65625 69.921875 
Q 26.5625 70.3125 29.6875 69.71875 
Q 32.8125 69.140625 36.125 66.984375 
Q 39.453125 64.84375 41.59375 60.546875 
Q 43.75 56.25 43.15625 50.1875 
Q 42.578125 44.140625 37.109375 35.734375 
Q 31.640625 27.34375 16.015625 9.375 
L 44.140625 9.375 
L 44.140625 2.34375 
L 4.6875 2.34375 
z
" id="SimHei-50"/>
      </defs>
      <g transform="translate(123.110422 319.9225)scale(0.1 -0.1)">
       <use xlink:href="#SimHei-50"/>
       <use x="50" xlink:href="#SimHei-48"/>
      </g>
     </g>
    </g>
    <g id="xtick_3">
     <g id="line2d_3">
      <g>
       <use style="stroke:#000000;stroke-width:0.8;" x="201.444424" xlink:href="#m6b63fa2f82" y="306.0475"/>
      </g>
     </g>
     <g id="text_3">
      <!-- 40 -->
      <defs>
       <path d="M 31.25 17.1875 
L 1.171875 17.1875 
L 1.171875 23.828125 
L 32.8125 69.53125 
L 38.671875 69.53125 
L 38.671875 23.828125 
L 48.046875 23.828125 
L 48.046875 17.1875 
L 38.671875 17.1875 
L 38.671875 2.34375 
L 31.25 2.34375 
z
M 31.25 23.828125 
L 31.25 54.6875 
L 9.375 23.828125 
z
" id="SimHei-52"/>
      </defs>
      <g transform="translate(196.444424 319.9225)scale(0.1 -0.1)">
       <use xlink:href="#SimHei-52"/>
       <use x="50" xlink:href="#SimHei-48"/>
      </g>
     </g>
    </g>
    <g id="xtick_4">
     <g id="line2d_4">
      <g>
       <use style="stroke:#000000;stroke-width:0.8;" x="274.778426" xlink:href="#m6b63fa2f82" y="306.0475"/>
      </g>
     </g>
     <g id="text_4">
      <!-- 60 -->
      <defs>
       <path d="M 3.515625 19.53125 
Q 4.296875 30.859375 6.046875 34.765625 
Q 7.8125 38.671875 11.328125 44.53125 
L 27.34375 69.53125 
L 36.328125 69.53125 
L 19.921875 43.75 
Q 30.46875 46.484375 36.71875 42.96875 
Q 42.96875 39.453125 45.109375 34.953125 
Q 47.265625 30.46875 47.453125 25.1875 
Q 47.65625 19.921875 45.890625 14.84375 
Q 44.140625 9.765625 39.640625 5.65625 
Q 35.15625 1.5625 27.140625 1.171875 
Q 19.140625 0.78125 13.46875 4.09375 
Q 7.8125 7.421875 5.65625 13.46875 
Q 3.515625 19.53125 4.296875 30.859375 
z
M 12.5 16.015625 
Q 19.53125 8.59375 25.390625 8.203125 
Q 31.25 7.8125 35.15625 12.109375 
Q 39.0625 16.40625 39.0625 24.609375 
Q 39.0625 32.8125 34.171875 35.9375 
Q 29.296875 39.0625 23.234375 38.28125 
Q 17.1875 37.5 14.453125 32.421875 
Q 11.71875 27.34375 12.109375 21.671875 
Q 12.5 16.015625 19.53125 8.59375 
z
" id="SimHei-54"/>
      </defs>
      <g transform="translate(269.778426 319.9225)scale(0.1 -0.1)">
       <use xlink:href="#SimHei-54"/>
       <use x="50" xlink:href="#SimHei-48"/>
      </g>
     </g>
    </g>
    <g id="xtick_5">
     <g id="line2d_5">
      <g>
       <use style="stroke:#000000;stroke-width:0.8;" x="348.112428" xlink:href="#m6b63fa2f82" y="306.0475"/>
      </g>
     </g>
     <g id="text_5">
      <!-- 80 -->
      <defs>
       <path d="M 2.734375 16.796875 
Q 2.734375 26.171875 5.078125 30.65625 
Q 7.421875 35.15625 12.890625 37.890625 
Q 8.203125 40.625 6.640625 43.9375 
Q 5.078125 47.265625 4.875 51.5625 
Q 4.6875 55.859375 6.046875 58.984375 
Q 7.421875 62.109375 10.15625 64.84375 
Q 12.890625 67.578125 16.203125 68.546875 
Q 19.53125 69.53125 23.4375 69.53125 
Q 27.34375 69.53125 30.46875 68.75 
Q 33.59375 67.96875 37.109375 65.421875 
Q 40.625 62.890625 42.1875 58.203125 
Q 43.75 53.515625 41.984375 47.265625 
Q 40.234375 41.015625 32.8125 37.5 
Q 39.453125 35.546875 42.1875 31.4375 
Q 44.921875 27.34375 44.921875 21.484375 
Q 44.921875 15.625 43.15625 12.109375 
Q 41.40625 8.59375 39.25 6.25 
Q 37.109375 3.90625 33.390625 2.53125 
Q 29.6875 1.171875 24.015625 1.171875 
Q 18.359375 1.171875 14.25 2.53125 
Q 10.15625 3.90625 7.421875 6.640625 
Q 4.6875 9.375 3.703125 13.078125 
Q 2.734375 16.796875 2.734375 26.171875 
z
M 10.9375 26.5625 
Q 10.546875 17.1875 12.296875 13.671875 
Q 14.0625 10.15625 18.75 9.171875 
Q 23.4375 8.203125 28.515625 9.375 
Q 33.59375 10.546875 35.546875 14.84375 
Q 37.5 19.140625 36.90625 23.4375 
Q 36.328125 27.734375 32.03125 30.65625 
Q 27.734375 33.59375 22.65625 33.203125 
Q 17.578125 32.8125 14.25 29.6875 
Q 10.9375 26.5625 10.546875 17.1875 
z
M 12.109375 56.25 
Q 12.109375 48.4375 14.84375 44.921875 
Q 17.578125 41.40625 23.4375 41.40625 
Q 29.296875 41.40625 32.21875 44.921875 
Q 35.15625 48.4375 34.953125 53.3125 
Q 34.765625 58.203125 31.4375 60.546875 
Q 28.125 62.890625 22.453125 62.5 
Q 16.796875 62.109375 14.453125 59.171875 
Q 12.109375 56.25 12.109375 48.4375 
z
" id="SimHei-56"/>
      </defs>
      <g transform="translate(343.112428 319.9225)scale(0.1 -0.1)">
       <use xlink:href="#SimHei-56"/>
       <use x="50" xlink:href="#SimHei-48"/>
      </g>
     </g>
    </g>
    <g id="xtick_6">
     <g id="line2d_6">
      <g>
       <use style="stroke:#000000;stroke-width:0.8;" x="421.446429" xlink:href="#m6b63fa2f82" y="306.0475"/>
      </g>
     </g>
     <g id="text_6">
      <!-- 100 -->
      <defs>
       <path d="M 21.875 56.25 
Q 16.796875 51.171875 8.984375 46.484375 
L 8.984375 53.90625 
Q 18.75 60.546875 25 69.53125 
L 29.6875 69.53125 
L 29.6875 2.34375 
L 21.875 2.34375 
z
" id="SimHei-49"/>
      </defs>
      <g transform="translate(413.946429 319.9225)scale(0.1 -0.1)">
       <use xlink:href="#SimHei-49"/>
       <use x="50" xlink:href="#SimHei-48"/>
       <use x="100" xlink:href="#SimHei-48"/>
      </g>
     </g>
    </g>
    <g id="text_7">
     <!-- 日期 -->
     <defs>
      <path d="M 83.984375 78.125 
Q 83.59375 58.984375 83.59375 35.546875 
Q 83.59375 12.109375 83.984375 -7.03125 
L 75 -7.03125 
L 75 2.734375 
L 28.125 2.734375 
L 28.125 -8.984375 
L 19.53125 -8.984375 
Q 19.921875 8.984375 19.921875 33.203125 
Q 19.921875 57.421875 19.53125 78.125 
L 83.984375 78.125 
z
M 75 9.375 
L 75 37.109375 
L 28.125 37.109375 
L 28.125 9.375 
z
M 75 43.75 
L 75 71.09375 
L 28.125 71.09375 
L 28.125 43.75 
z
" id="SimHei-26085"/>
      <path d="M 76.5625 -0.390625 
Q 85.546875 -1.5625 84.765625 2.734375 
L 84.765625 24.609375 
L 67.578125 24.609375 
Q 66.796875 15.234375 63.28125 6.640625 
Q 59.765625 -1.953125 53.125 -9.375 
Q 50.390625 -5.859375 45.703125 -4.296875 
Q 52.34375 2.34375 55.65625 9.765625 
Q 58.984375 17.1875 59.5625 24.609375 
Q 60.15625 32.03125 60.15625 48.828125 
Q 60.15625 66.015625 59.765625 76.171875 
L 92.96875 76.171875 
Q 92.578125 68.75 92.578125 58.203125 
L 92.578125 0.78125 
Q 92.578125 -4.6875 89.0625 -6.640625 
Q 85.546875 -8.59375 79.6875 -9.375 
Q 79.6875 -5.078125 76.5625 -0.390625 
z
M 14.84375 67.1875 
Q 14.84375 73.046875 14.453125 80.078125 
L 22.65625 80.078125 
Q 22.265625 72.265625 22.265625 67.1875 
L 39.84375 67.1875 
Q 39.84375 74.609375 39.453125 80.078125 
L 48.046875 80.078125 
Q 47.65625 73.4375 47.65625 67.1875 
Q 50.390625 67.1875 54.6875 67.578125 
L 54.6875 60.9375 
Q 50.78125 61.328125 47.65625 61.328125 
L 47.65625 24.21875 
Q 50.78125 24.21875 54.6875 24.609375 
L 54.6875 17.96875 
Q 47.265625 18.359375 40.234375 18.359375 
L 19.140625 18.359375 
Q 10.546875 18.359375 4.296875 17.96875 
L 4.296875 24.609375 
Q 10.15625 24.21875 14.84375 24.21875 
L 14.84375 61.328125 
Q 11.328125 61.328125 6.640625 60.9375 
L 6.640625 67.578125 
Q 10.9375 67.1875 14.84375 67.1875 
z
M 84.765625 52.734375 
L 84.765625 70.3125 
L 67.96875 70.3125 
L 67.96875 52.734375 
z
M 84.765625 30.46875 
L 84.765625 46.875 
L 67.96875 46.875 
L 67.96875 30.46875 
z
M 25 11.328125 
Q 22.265625 10.15625 18.15625 4.484375 
Q 14.0625 -1.171875 10.15625 -5.46875 
Q 6.25 -2.734375 3.515625 -1.171875 
Q 7.03125 1.5625 10.9375 6.4375 
Q 14.84375 11.328125 17.1875 16.015625 
L 25 11.328125 
z
M 39.84375 52.734375 
L 39.84375 61.328125 
L 22.265625 61.328125 
L 22.265625 52.734375 
z
M 39.84375 24.21875 
L 39.84375 32.8125 
L 22.265625 32.8125 
L 22.265625 24.21875 
z
M 39.84375 38.671875 
L 39.84375 46.875 
L 22.265625 46.875 
L 22.265625 38.671875 
z
M 44.53125 -1.171875 
Q 38.28125 8.203125 34.765625 11.328125 
Q 37.109375 12.890625 39.84375 16.015625 
Q 44.53125 11.328125 50.78125 4.296875 
Q 47.65625 1.953125 44.53125 -1.171875 
z
" id="SimHei-26399"/>
     </defs>
     <g transform="translate(231.778125 332.867812)scale(0.1 -0.1)">
      <use xlink:href="#SimHei-26085"/>
      <use x="100" xlink:href="#SimHei-26399"/>
     </g>
    </g>
   </g>
   <g id="matplotlib.axis_2">
    <g id="ytick_1">
     <g id="line2d_7">
      <defs>
       <path d="M 0 0 
L -3.5 0 
" id="m9626e465a3" style="stroke:#000000;stroke-width:0.8;"/>
      </defs>
      <g>
       <use style="stroke:#000000;stroke-width:0.8;" x="36.07625" xlink:href="#m9626e465a3" y="293.379447"/>
      </g>
     </g>
     <g id="text_8">
      <!-- 0 -->
      <g transform="translate(24.07625 296.816947)scale(0.1 -0.1)">
       <use xlink:href="#SimHei-48"/>
      </g>
     </g>
    </g>
    <g id="ytick_2">
     <g id="line2d_8">
      <g>
       <use style="stroke:#000000;stroke-width:0.8;" x="36.07625" xlink:href="#m9626e465a3" y="258.969067"/>
      </g>
     </g>
     <g id="text_9">
      <!-- 1 -->
      <g transform="translate(24.07625 262.406567)scale(0.1 -0.1)">
       <use xlink:href="#SimHei-49"/>
      </g>
     </g>
    </g>
    <g id="ytick_3">
     <g id="line2d_9">
      <g>
       <use style="stroke:#000000;stroke-width:0.8;" x="36.07625" xlink:href="#m9626e465a3" y="224.558687"/>
      </g>
     </g>
     <g id="text_10">
      <!-- 2 -->
      <g transform="translate(24.07625 227.996187)scale(0.1 -0.1)">
       <use xlink:href="#SimHei-50"/>
      </g>
     </g>
    </g>
    <g id="ytick_4">
     <g id="line2d_10">
      <g>
       <use style="stroke:#000000;stroke-width:0.8;" x="36.07625" xlink:href="#m9626e465a3" y="190.148307"/>
      </g>
     </g>
     <g id="text_11">
      <!-- 3 -->
      <defs>
       <path d="M 3.90625 19.140625 
L 10.9375 20.3125 
Q 12.5 15.234375 16.015625 11.90625 
Q 19.53125 8.59375 24.796875 8.78125 
Q 30.078125 8.984375 33.203125 13.078125 
Q 36.328125 17.1875 35.9375 22.453125 
Q 35.546875 27.734375 31.828125 30.65625 
Q 28.125 33.59375 19.921875 34.765625 
L 19.921875 39.84375 
Q 28.125 40.625 31.828125 44.140625 
Q 35.546875 47.65625 35.15625 53.3125 
Q 34.765625 58.984375 30.078125 61.515625 
Q 25.390625 64.0625 20.109375 62.109375 
Q 14.84375 60.15625 11.71875 51.171875 
L 4.6875 52.34375 
Q 7.03125 59.375 11.125 64.0625 
Q 15.234375 68.75 22.265625 69.53125 
Q 29.296875 70.3125 34.5625 67.765625 
Q 39.84375 65.234375 41.984375 59.953125 
Q 44.140625 54.6875 42.578125 48.4375 
Q 41.015625 42.1875 33.59375 37.5 
Q 39.0625 35.15625 41.984375 30.46875 
Q 44.921875 25.78125 43.9375 18.15625 
Q 42.96875 10.546875 37.109375 5.859375 
Q 31.25 1.171875 23.828125 1.359375 
Q 16.40625 1.5625 10.9375 6.046875 
Q 5.46875 10.546875 3.90625 19.140625 
z
" id="SimHei-51"/>
      </defs>
      <g transform="translate(24.07625 193.585807)scale(0.1 -0.1)">
       <use xlink:href="#SimHei-51"/>
      </g>
     </g>
    </g>
    <g id="ytick_5">
     <g id="line2d_11">
      <g>
       <use style="stroke:#000000;stroke-width:0.8;" x="36.07625" xlink:href="#m9626e465a3" y="155.737928"/>
      </g>
     </g>
     <g id="text_12">
      <!-- 4 -->
      <g transform="translate(24.07625 159.175428)scale(0.1 -0.1)">
       <use xlink:href="#SimHei-52"/>
      </g>
     </g>
    </g>
    <g id="ytick_6">
     <g id="line2d_12">
      <g>
       <use style="stroke:#000000;stroke-width:0.8;" x="36.07625" xlink:href="#m9626e465a3" y="121.327548"/>
      </g>
     </g>
     <g id="text_13">
      <!-- 5 -->
      <defs>
       <path d="M 8.59375 20.703125 
Q 11.328125 10.15625 17.96875 8.984375 
Q 24.609375 7.8125 28.703125 10.34375 
Q 32.8125 12.890625 34.5625 16.984375 
Q 36.328125 21.09375 36.125 26.171875 
Q 35.9375 31.25 33.390625 34.765625 
Q 30.859375 38.28125 26.953125 39.453125 
Q 23.046875 40.625 18.15625 39.453125 
Q 13.28125 38.28125 10.15625 33.984375 
L 3.515625 34.765625 
Q 4.296875 37.109375 10.9375 68.359375 
L 41.796875 68.359375 
L 41.796875 61.328125 
L 16.796875 61.328125 
Q 14.84375 50.78125 12.890625 44.53125 
Q 18.75 47.265625 23.828125 47.0625 
Q 28.90625 46.875 33.59375 44.71875 
Q 38.28125 42.578125 40.421875 38.859375 
Q 42.578125 35.15625 43.546875 31.4375 
Q 44.53125 27.734375 44.328125 23.4375 
Q 44.140625 19.140625 42.578125 14.640625 
Q 41.015625 10.15625 37.890625 7.21875 
Q 34.765625 4.296875 30.265625 2.53125 
Q 25.78125 0.78125 19.921875 1.171875 
Q 14.0625 1.5625 8.78125 5.46875 
Q 3.515625 9.375 1.5625 18.75 
z
" id="SimHei-53"/>
      </defs>
      <g transform="translate(24.07625 124.765048)scale(0.1 -0.1)">
       <use xlink:href="#SimHei-53"/>
      </g>
     </g>
    </g>
    <g id="ytick_7">
     <g id="line2d_13">
      <g>
       <use style="stroke:#000000;stroke-width:0.8;" x="36.07625" xlink:href="#m9626e465a3" y="86.917168"/>
      </g>
     </g>
     <g id="text_14">
      <!-- 6 -->
      <g transform="translate(24.07625 90.354668)scale(0.1 -0.1)">
       <use xlink:href="#SimHei-54"/>
      </g>
     </g>
    </g>
    <g id="ytick_8">
     <g id="line2d_14">
      <g>
       <use style="stroke:#000000;stroke-width:0.8;" x="36.07625" xlink:href="#m9626e465a3" y="52.506788"/>
      </g>
     </g>
     <g id="text_15">
      <!-- 7 -->
      <defs>
       <path d="M 13.28125 2.34375 
Q 20.3125 32.03125 37.890625 61.328125 
L 4.296875 61.328125 
L 4.296875 68.359375 
L 46.09375 68.359375 
L 46.09375 61.71875 
Q 27.734375 32.03125 21.875 2.34375 
L 13.28125 2.34375 
z
" id="SimHei-55"/>
      </defs>
      <g transform="translate(24.07625 55.944288)scale(0.1 -0.1)">
       <use xlink:href="#SimHei-55"/>
      </g>
     </g>
    </g>
    <g id="text_16">
     <!-- 借贷总量 -->
     <defs>
      <path d="M 84.765625 34.375 
Q 84.375 28.515625 84.375 13.28125 
Q 84.375 -1.5625 84.765625 -7.8125 
L 77.734375 -7.8125 
L 77.734375 -2.734375 
L 45.3125 -2.734375 
L 45.3125 -8.203125 
L 38.28125 -8.203125 
Q 38.671875 -2.734375 38.671875 11.71875 
Q 38.671875 26.171875 38.28125 34.375 
L 84.765625 34.375 
z
M 46.875 67.96875 
Q 46.875 75.78125 46.484375 80.078125 
L 54.6875 80.078125 
Q 53.90625 78.515625 53.90625 67.96875 
L 68.75 67.96875 
Q 68.75 77.34375 68.359375 80.46875 
L 76.5625 80.46875 
Q 75.78125 76.171875 75.78125 67.96875 
Q 85.15625 67.96875 90.625 68.359375 
L 90.625 60.9375 
Q 84.765625 61.328125 75.78125 61.328125 
L 75.78125 48.828125 
L 81.25 48.828125 
Q 87.890625 48.828125 93.75 49.21875 
L 93.75 41.796875 
Q 88.28125 42.1875 80.859375 42.1875 
L 41.40625 42.1875 
Q 35.546875 42.1875 30.078125 41.796875 
L 30.078125 49.21875 
Q 34.765625 48.828125 41.40625 48.828125 
L 46.875 48.828125 
L 46.875 61.328125 
Q 38.671875 61.328125 34.765625 60.9375 
L 34.765625 68.359375 
Q 38.28125 67.96875 46.875 67.96875 
z
M 17.1875 48.4375 
Q 12.890625 39.84375 9.375 34.375 
Q 7.03125 37.109375 3.125 39.84375 
Q 7.8125 45.3125 13.859375 57.421875 
Q 19.921875 69.53125 23.046875 82.03125 
Q 25.78125 80.46875 32.421875 78.125 
Q 28.90625 75 24.21875 60.9375 
L 24.21875 5.859375 
Q 24.21875 -3.515625 24.609375 -9.765625 
L 16.796875 -9.765625 
Q 17.1875 -4.6875 17.1875 6.640625 
z
M 77.734375 18.75 
L 77.734375 27.734375 
L 45.3125 27.734375 
L 45.3125 18.75 
z
M 77.734375 3.90625 
L 77.734375 12.109375 
L 45.3125 12.109375 
L 45.3125 3.90625 
z
M 68.75 48.828125 
L 68.75 61.328125 
L 53.90625 61.328125 
L 53.90625 48.828125 
z
" id="SimHei-20511"/>
      <path d="M 46.484375 80.078125 
Q 50.78125 80.46875 54.6875 81.25 
Q 55.46875 76.5625 56.25 72.84375 
Q 57.03125 69.140625 58.59375 64.0625 
Q 73.046875 66.40625 89.0625 69.921875 
L 90.625 63.28125 
Q 85.9375 62.890625 78.703125 61.515625 
Q 71.484375 60.15625 61.71875 58.59375 
Q 67.1875 50.78125 73.046875 47.0625 
Q 78.90625 43.359375 81.640625 44.53125 
Q 84.375 45.703125 85.9375 53.125 
Q 89.0625 50.78125 94.53125 49.609375 
Q 91.796875 43.359375 88.078125 39.453125 
Q 84.375 35.546875 76.359375 37.6875 
Q 68.359375 39.84375 62.5 45.890625 
Q 56.640625 51.953125 53.515625 57.421875 
Q 45.3125 55.46875 32.421875 53.125 
L 30.46875 59.375 
Q 37.109375 60.15625 51.171875 62.890625 
z
M 82.421875 35.9375 
Q 82.03125 30.078125 82.03125 23.4375 
Q 82.03125 17.1875 82.421875 9.765625 
L 73.4375 9.765625 
L 73.4375 29.6875 
L 27.34375 29.6875 
L 27.34375 8.59375 
L 18.75 8.59375 
Q 19.140625 18.359375 19.140625 24.21875 
Q 19.140625 30.078125 18.75 35.9375 
L 82.421875 35.9375 
z
M 55.078125 22.65625 
Q 52.734375 16.796875 51.171875 11.90625 
Q 49.609375 7.03125 45.109375 2.734375 
Q 40.625 -1.5625 32.421875 -4.875 
Q 24.21875 -8.203125 10.15625 -10.15625 
Q 8.203125 -5.859375 5.078125 -1.953125 
Q 15.625 -1.5625 22.453125 -0.1875 
Q 29.296875 1.171875 34.375 4.484375 
Q 39.453125 7.8125 41.984375 12.109375 
Q 44.53125 16.40625 45.3125 25 
Q 49.609375 23.4375 55.078125 22.65625 
z
M 35.15625 76.171875 
Q 32.03125 74.609375 25.78125 66.796875 
Q 25.78125 45.3125 26.171875 39.453125 
L 17.96875 39.453125 
Q 18.359375 45.3125 18.359375 60.546875 
Q 12.5 54.296875 9.375 51.5625 
Q 6.25 55.078125 3.515625 57.421875 
Q 12.109375 62.5 17.375 68.359375 
Q 22.65625 74.21875 27.34375 82.03125 
L 35.15625 76.171875 
z
M 60.9375 10.546875 
Q 69.140625 7.03125 91.796875 -3.515625 
Q 88.671875 -7.03125 86.328125 -10.15625 
Q 73.828125 -3.125 55.859375 4.296875 
Q 58.59375 7.8125 60.9375 10.546875 
z
M 70.3125 82.03125 
Q 73.046875 79.296875 79.6875 73.046875 
Q 75.390625 70.3125 72.65625 68.359375 
Q 69.921875 72.65625 64.0625 77.34375 
Q 67.578125 79.296875 70.3125 82.03125 
z
" id="SimHei-36151"/>
      <path d="M 71.09375 75.78125 
Q 68.359375 72.65625 62.890625 60.9375 
L 79.6875 60.9375 
Q 79.296875 53.515625 79.296875 46.09375 
Q 79.296875 39.0625 79.6875 31.640625 
L 18.359375 31.640625 
Q 18.75 39.84375 18.75 46.875 
Q 18.75 54.296875 18.359375 60.9375 
L 33.984375 60.9375 
Q 29.6875 67.96875 23.828125 74.21875 
Q 26.5625 75.78125 29.296875 78.90625 
Q 36.71875 71.09375 40.234375 65.625 
Q 37.5 63.671875 35.15625 60.9375 
L 55.46875 60.9375 
Q 60.546875 73.4375 61.71875 79.6875 
Q 67.1875 76.953125 71.09375 75.78125 
z
M 71.875 38.28125 
L 71.875 55.078125 
L 25.78125 55.078125 
L 25.78125 38.28125 
z
M 35.546875 22.65625 
Q 35.15625 16.40625 35.15625 10.546875 
Q 35.15625 4.6875 35.34375 1.75 
Q 35.546875 -1.171875 41.796875 -1.171875 
L 62.5 -1.171875 
Q 67.578125 -1.171875 68.75 8.59375 
Q 72.65625 6.25 76.953125 5.078125 
Q 74.609375 -3.125 71.28125 -5.265625 
Q 67.96875 -7.421875 62.5 -7.03125 
L 36.328125 -7.03125 
Q 28.90625 -7.03125 28.515625 -2.734375 
Q 28.125 1.5625 28.125 8.203125 
Q 28.125 15.234375 27.734375 22.65625 
L 35.546875 22.65625 
z
M 21.09375 20.703125 
Q 16.40625 4.6875 12.890625 -3.90625 
Q 9.765625 -2.34375 5.859375 -0.78125 
Q 10.546875 8.203125 14.0625 23.4375 
Q 17.1875 22.265625 21.09375 20.703125 
z
M 77.34375 24.609375 
Q 89.0625 12.890625 93.75 7.03125 
Q 91.015625 4.296875 87.890625 1.5625 
Q 83.984375 7.03125 71.875 19.921875 
Q 74.21875 21.484375 77.34375 24.609375 
z
M 52.34375 8.984375 
Q 46.484375 18.359375 41.796875 23.4375 
Q 44.140625 25.78125 46.875 28.125 
Q 50.390625 24.609375 58.59375 13.671875 
Q 55.078125 12.109375 52.34375 8.984375 
z
" id="SimHei-24635"/>
      <path d="M 82.03125 39.0625 
Q 81.640625 34.375 81.640625 26.5625 
Q 81.640625 19.140625 82.03125 14.84375 
L 53.515625 14.84375 
L 53.515625 9.765625 
L 71.484375 9.765625 
Q 78.125 9.765625 83.984375 10.15625 
L 83.984375 4.296875 
Q 78.515625 4.6875 71.484375 4.6875 
L 53.515625 4.6875 
L 53.515625 -1.171875 
L 80.078125 -1.171875 
Q 86.328125 -1.171875 92.578125 -0.78125 
L 92.578125 -6.640625 
Q 86.328125 -6.25 80.078125 -6.25 
L 19.921875 -6.25 
Q 14.0625 -6.25 7.421875 -6.640625 
L 7.421875 -0.78125 
Q 14.453125 -0.78125 19.921875 -1.171875 
L 46.484375 -1.171875 
L 46.484375 4.6875 
L 26.953125 4.6875 
Q 21.09375 4.6875 15.234375 3.90625 
L 15.234375 10.15625 
Q 21.484375 9.765625 26.953125 9.765625 
L 46.484375 9.765625 
L 46.484375 14.84375 
L 17.96875 14.84375 
Q 18.359375 21.484375 18.359375 27.734375 
Q 18.359375 33.984375 17.96875 39.0625 
L 82.03125 39.0625 
z
M 81.25 77.34375 
Q 80.859375 71.484375 80.859375 66.40625 
Q 80.859375 61.328125 81.25 53.125 
L 18.75 53.125 
Q 19.140625 61.328125 19.140625 66.40625 
Q 19.140625 71.484375 18.75 77.34375 
L 81.25 77.34375 
z
M 76.5625 48.4375 
Q 85.9375 48.828125 93.75 49.21875 
L 93.75 42.96875 
Q 85.9375 43.359375 76.953125 43.359375 
L 25.78125 43.359375 
Q 15.234375 43.359375 5.078125 42.96875 
L 5.078125 49.21875 
Q 15.234375 48.828125 25.78125 48.4375 
z
M 73.828125 57.8125 
L 73.828125 62.890625 
L 26.171875 62.890625 
L 26.171875 57.8125 
z
M 73.828125 67.96875 
L 73.828125 72.65625 
L 26.171875 72.65625 
L 26.171875 67.96875 
z
M 74.21875 29.296875 
L 74.21875 33.984375 
L 53.515625 33.984375 
L 53.515625 29.296875 
z
M 46.484375 29.296875 
L 46.484375 33.984375 
L 25.78125 33.984375 
L 25.78125 29.296875 
z
M 46.484375 19.921875 
L 46.484375 24.21875 
L 25.78125 24.21875 
L 25.78125 19.921875 
z
M 74.21875 19.921875 
L 74.21875 24.21875 
L 53.515625 24.21875 
L 53.515625 19.921875 
z
" id="SimHei-37327"/>
     </defs>
     <g transform="translate(18.82625 186.35125)rotate(-90)scale(0.1 -0.1)">
      <use xlink:href="#SimHei-20511"/>
      <use x="100" xlink:href="#SimHei-36151"/>
      <use x="200" xlink:href="#SimHei-24635"/>
      <use x="300" xlink:href="#SimHei-37327"/>
     </g>
    </g>
    <g id="text_17">
     <!-- 1e8 -->
     <defs>
      <path d="M 44.53125 16.796875 
Q 43.75 9.765625 38.28125 5.46875 
Q 32.8125 1.171875 25.390625 1.171875 
Q 16.015625 1.171875 9.953125 7.21875 
Q 3.90625 13.28125 3.90625 23.828125 
Q 3.90625 34.375 9.953125 40.421875 
Q 16.015625 46.484375 25.390625 46.484375 
Q 33.59375 46.484375 38.859375 41.203125 
Q 44.140625 35.9375 44.140625 23.828125 
L 12.5 23.828125 
Q 12.5 15.234375 16.203125 11.71875 
Q 19.921875 8.203125 25.390625 8.203125 
Q 29.6875 8.203125 32.421875 10.34375 
Q 35.15625 12.5 35.9375 16.796875 
z
M 35.15625 30.078125 
Q 34.375 35.546875 31.640625 37.6875 
Q 28.90625 39.84375 24.609375 39.84375 
Q 20.703125 39.84375 17.578125 37.6875 
Q 14.453125 35.546875 12.890625 30.078125 
z
" id="SimHei-101"/>
     </defs>
     <g transform="translate(36.07625 23.655)scale(0.1 -0.1)">
      <use xlink:href="#SimHei-49"/>
      <use x="50" xlink:href="#SimHei-101"/>
      <use x="100" xlink:href="#SimHei-56"/>
     </g>
    </g>
   </g>
   <g id="line2d_15">
    <path clip-path="url(#p63b9225229)" d="M 54.77642 293.347841 
L 58.443121 293.259587 
L 62.109821 293.20213 
L 65.776521 293.251113 
L 69.443221 293.120259 
L 73.109921 293.032367 
L 76.776621 292.730063 
L 80.443321 292.372599 
L 84.110021 292.361166 
L 87.776721 291.951399 
L 91.443421 292.541941 
L 95.110121 293.16304 
L 98.776822 293.152278 
L 102.443522 293.084731 
L 106.110222 293.175583 
L 109.776922 293.270134 
L 113.443622 293.04823 
L 117.110322 292.668907 
L 120.777022 292.496141 
L 124.443722 292.529467 
L 128.110422 292.445231 
L 131.777122 292.326042 
L 135.443822 292.319788 
L 139.110523 292.194594 
L 142.777223 292.143323 
L 146.443923 292.045649 
L 150.110623 291.893383 
L 153.777323 291.622031 
L 157.444023 291.215223 
L 161.110723 291.022723 
L 164.777423 290.9272 
L 168.444123 290.837913 
L 172.110823 290.812433 
L 175.777523 290.397873 
L 179.444223 290.106822 
L 183.110924 289.729142 
L 186.777624 289.535962 
L 190.444324 289.272052 
L 194.111024 289.215146 
L 197.777724 289.163281 
L 201.444424 288.860633 
L 205.111124 288.74042 
L 208.777824 288.462548 
L 212.444524 288.278254 
L 216.111224 288.355093 
L 219.777924 287.678567 
L 223.444625 287.343152 
L 227.111325 286.728626 
L 230.778025 286.173844 
L 234.444725 286.037098 
L 238.111425 285.379885 
L 241.778125 284.488613 
L 245.444825 283.922597 
L 249.111525 283.630092 
L 252.778225 282.491142 
L 256.444925 281.604051 
L 260.111625 280.971692 
L 263.778326 279.774856 
L 267.445026 278.909495 
L 271.111726 277.863523 
L 274.778426 276.097083 
L 278.445126 272.631872 
L 282.111826 269.265117 
L 285.778526 266.873905 
L 289.445226 265.14844 
L 293.111926 263.2028 
L 296.778626 261.002566 
L 300.445326 257.222955 
L 304.112027 252.02802 
L 307.778727 249.456834 
L 311.445427 245.161635 
L 315.112127 242.439534 
L 318.778827 238.989239 
L 322.445527 234.614493 
L 326.112227 231.42952 
L 329.778927 228.718515 
L 333.445627 222.98338 
L 337.112327 219.255841 
L 340.779027 216.243376 
L 344.445727 213.30122 
L 348.112428 214.205662 
L 351.779128 208.811534 
L 355.445828 196.624487 
L 359.112528 196.802724 
L 362.779228 205.323672 
L 366.445928 144.367112 
L 370.112628 196.539356 
L 373.779328 238.514101 
L 377.446028 96.637765 
L 381.112728 164.868154 
L 384.779428 238.876304 
L 388.446129 109.926503 
L 392.112829 167.12483 
L 395.779529 159.177839 
L 399.446229 107.769488 
L 403.112929 127.112113 
L 406.779629 145.491488 
L 410.446329 53.8011 
L 414.113029 102.287803 
L 417.779729 138.447813 
L 421.446429 39.354659 
L 425.113129 98.187488 
L 428.77983 63.558525 
" style="fill:none;stroke:#1f77b4;stroke-linecap:square;stroke-width:1.5;"/>
   </g>
   <g id="patch_3">
    <path d="M 36.07625 306.0475 
L 36.07625 26.655 
" style="fill:none;stroke:#000000;stroke-linecap:square;stroke-linejoin:miter;stroke-width:0.8;"/>
   </g>
   <g id="patch_4">
    <path d="M 447.48 306.0475 
L 447.48 26.655 
" style="fill:none;stroke:#000000;stroke-linecap:square;stroke-linejoin:miter;stroke-width:0.8;"/>
   </g>
   <g id="patch_5">
    <path d="M 36.07625 306.0475 
L 447.48 306.0475 
" style="fill:none;stroke:#000000;stroke-linecap:square;stroke-linejoin:miter;stroke-width:0.8;"/>
   </g>
   <g id="patch_6">
    <path d="M 36.07625 26.655 
L 447.48 26.655 
" style="fill:none;stroke:#000000;stroke-linecap:square;stroke-linejoin:miter;stroke-width:0.8;"/>
   </g>
   <g id="text_18">
    <!-- 日期 vs 借贷总量 -->
    <defs>
     <path id="SimHei-32"/>
     <path d="M 44.921875 45.703125 
L 28.515625 1.171875 
L 19.921875 1.171875 
L 3.515625 45.703125 
L 11.71875 45.703125 
L 23.828125 11.71875 
L 24.609375 11.71875 
L 36.71875 45.703125 
z
" id="SimHei-118"/>
     <path d="M 42.96875 14.0625 
Q 42.96875 7.8125 38.078125 4.484375 
Q 33.203125 1.171875 25.78125 1.171875 
Q 16.40625 1.171875 11.328125 4.875 
Q 6.25 8.59375 6.25 15.625 
L 14.0625 15.625 
Q 14.0625 10.9375 17.375 9.375 
Q 20.703125 7.8125 25.390625 7.8125 
Q 30.078125 7.8125 32.421875 9.5625 
Q 34.765625 11.328125 34.765625 14.0625 
Q 34.765625 16.015625 32.8125 17.96875 
Q 30.859375 19.921875 23.046875 21.09375 
Q 14.0625 22.265625 10.734375 25.578125 
Q 7.421875 28.90625 7.421875 34.375 
Q 7.421875 39.0625 11.90625 42.765625 
Q 16.40625 46.484375 25 46.484375 
Q 32.8125 46.484375 37.296875 42.96875 
Q 41.796875 39.453125 41.796875 33.59375 
L 33.984375 33.59375 
Q 33.984375 37.109375 31.4375 38.46875 
Q 28.90625 39.84375 25 39.84375 
Q 19.921875 39.84375 17.765625 38.078125 
Q 15.625 36.328125 15.625 33.984375 
Q 15.625 31.25 17.578125 29.6875 
Q 19.53125 28.125 25.78125 27.34375 
Q 35.9375 25.78125 39.453125 22.453125 
Q 42.96875 19.140625 42.96875 14.0625 
z
" id="SimHei-115"/>
    </defs>
    <g transform="translate(193.778125 20.655)scale(0.12 -0.12)">
     <use xlink:href="#SimHei-26085"/>
     <use x="100" xlink:href="#SimHei-26399"/>
     <use x="200" xlink:href="#SimHei-32"/>
     <use x="250" xlink:href="#SimHei-118"/>
     <use x="300" xlink:href="#SimHei-115"/>
     <use x="350" xlink:href="#SimHei-32"/>
     <use x="400" xlink:href="#SimHei-20511"/>
     <use x="500" xlink:href="#SimHei-36151"/>
     <use x="600" xlink:href="#SimHei-24635"/>
     <use x="700" xlink:href="#SimHei-37327"/>
    </g>
   </g>
   <g id="legend_1">
    <g id="patch_7">
     <path d="M 43.07625 47.983125 
L 120.07625 47.983125 
Q 122.07625 47.983125 122.07625 45.983125 
L 122.07625 33.655 
Q 122.07625 31.655 120.07625 31.655 
L 43.07625 31.655 
Q 41.07625 31.655 41.07625 33.655 
L 41.07625 45.983125 
Q 41.07625 47.983125 43.07625 47.983125 
z
" style="fill:#ffffff;opacity:0.8;stroke:#cccccc;stroke-linejoin:miter;"/>
    </g>
    <g id="line2d_16">
     <path d="M 45.07625 39.155 
L 65.07625 39.155 
" style="fill:none;stroke:#1f77b4;stroke-linecap:square;stroke-width:1.5;"/>
    </g>
    <g id="line2d_17"/>
    <g id="text_19">
     <!-- loan_amnt -->
     <defs>
      <path d="M 28.515625 1.953125 
L 20.703125 1.953125 
L 20.703125 68.75 
L 28.515625 68.75 
z
" id="SimHei-108"/>
      <path d="M 45.703125 23.828125 
Q 45.703125 13.671875 39.453125 7.421875 
Q 33.203125 1.171875 24.609375 1.171875 
Q 16.015625 1.171875 9.765625 7.421875 
Q 3.515625 13.671875 3.515625 23.828125 
Q 3.515625 33.984375 9.765625 40.234375 
Q 16.015625 46.484375 24.609375 46.484375 
Q 33.203125 46.484375 39.453125 40.234375 
Q 45.703125 33.984375 45.703125 23.828125 
z
M 37.109375 23.828125 
Q 37.109375 31.640625 33.203125 35.546875 
Q 29.296875 39.453125 24.609375 39.453125 
Q 19.921875 39.453125 16.015625 35.546875 
Q 12.109375 31.640625 12.109375 23.828125 
Q 12.109375 16.015625 16.015625 12.109375 
Q 19.921875 8.203125 24.609375 8.203125 
Q 29.296875 8.203125 33.203125 12.109375 
Q 37.109375 16.015625 37.109375 23.828125 
z
" id="SimHei-111"/>
      <path d="M 44.921875 1.953125 
L 35.546875 1.953125 
Q 34.765625 2.734375 34.375 4.09375 
Q 33.984375 5.46875 33.984375 7.421875 
Q 31.25 4.296875 27.34375 2.734375 
Q 23.4375 1.171875 19.140625 1.171875 
Q 12.890625 1.171875 8.59375 4.296875 
Q 4.296875 7.421875 4.296875 13.28125 
Q 4.296875 19.140625 8.203125 22.65625 
Q 12.109375 26.171875 20.3125 27.34375 
Q 25.78125 28.125 29.875 29.296875 
Q 33.984375 30.46875 33.984375 32.421875 
Q 33.984375 34.765625 32.21875 37.109375 
Q 30.46875 39.453125 24.609375 39.453125 
Q 19.921875 39.453125 17.765625 37.6875 
Q 15.625 35.9375 14.84375 32.8125 
L 6.25 32.8125 
Q 7.03125 39.0625 11.90625 42.765625 
Q 16.796875 46.484375 24.609375 46.484375 
Q 33.203125 46.484375 37.5 42.578125 
Q 41.796875 38.671875 41.796875 31.640625 
L 41.796875 10.15625 
Q 41.796875 7.8125 42.578125 5.859375 
Q 43.359375 3.90625 44.921875 1.953125 
z
M 33.984375 16.40625 
L 33.984375 24.21875 
Q 31.640625 23.4375 29.484375 22.84375 
Q 27.34375 22.265625 22.265625 21.484375 
Q 16.40625 20.703125 14.640625 18.75 
Q 12.890625 16.796875 12.890625 14.0625 
Q 12.890625 11.71875 14.640625 9.953125 
Q 16.40625 8.203125 19.921875 8.203125 
Q 23.4375 8.203125 27.53125 10.15625 
Q 31.640625 12.109375 33.984375 16.40625 
z
" id="SimHei-97"/>
      <path d="M 43.75 1.953125 
L 35.9375 1.953125 
L 35.9375 30.078125 
Q 35.9375 34.765625 33.59375 37.5 
Q 31.25 40.234375 27.34375 40.234375 
Q 22.265625 40.234375 17.765625 34.953125 
Q 13.28125 29.6875 13.28125 21.875 
L 13.28125 1.953125 
L 5.46875 1.953125 
L 5.46875 45.703125 
L 13.28125 45.703125 
L 13.28125 37.5 
Q 16.40625 41.796875 20.109375 44.140625 
Q 23.828125 46.484375 29.6875 46.484375 
Q 36.71875 46.484375 40.234375 42.578125 
Q 43.75 38.671875 43.75 32.8125 
z
" id="SimHei-110"/>
      <path d="M 49.21875 -13.28125 
L 0 -13.28125 
L 0 -8.59375 
L 49.21875 -8.59375 
z
" id="SimHei-95"/>
      <path d="M 47.65625 1.953125 
L 39.84375 1.953125 
L 39.84375 33.59375 
Q 39.84375 35.9375 39.0625 37.5 
Q 38.28125 39.0625 35.9375 39.0625 
Q 33.203125 39.0625 30.859375 36.125 
Q 28.515625 33.203125 28.515625 28.515625 
L 28.515625 1.953125 
L 20.703125 1.953125 
L 20.703125 33.59375 
Q 20.703125 35.9375 19.921875 37.5 
Q 19.140625 39.0625 16.796875 39.0625 
Q 14.0625 39.0625 11.71875 36.125 
Q 9.375 33.203125 9.375 28.515625 
L 9.375 1.953125 
L 1.5625 1.953125 
L 1.5625 45.703125 
L 9.375 45.703125 
L 9.375 39.84375 
Q 11.328125 42.96875 14.0625 44.71875 
Q 16.796875 46.484375 19.921875 46.484375 
Q 23.046875 46.484375 25.1875 44.71875 
Q 27.34375 42.96875 28.125 39.84375 
Q 30.078125 42.96875 32.609375 44.71875 
Q 35.15625 46.484375 38.28125 46.484375 
Q 42.96875 46.484375 45.3125 43.9375 
Q 47.65625 41.40625 47.65625 36.71875 
z
" id="SimHei-109"/>
      <path d="M 42.96875 3.125 
Q 41.015625 2.34375 38.46875 1.75 
Q 35.9375 1.171875 31.640625 1.171875 
Q 24.609375 1.171875 20.3125 5.078125 
Q 16.015625 8.984375 16.015625 16.015625 
L 16.015625 39.453125 
L 2.734375 39.453125 
L 2.734375 45.703125 
L 16.015625 45.703125 
L 16.015625 60.9375 
L 23.828125 60.9375 
L 23.828125 45.703125 
L 39.84375 45.703125 
L 39.84375 39.453125 
L 23.828125 39.453125 
L 23.828125 15.625 
Q 23.828125 12.5 25.390625 10.34375 
Q 26.953125 8.203125 31.25 8.203125 
Q 35.546875 8.203125 38.28125 8.984375 
Q 41.015625 9.765625 42.96875 10.9375 
z
" id="SimHei-116"/>
     </defs>
     <g transform="translate(73.07625 42.655)scale(0.1 -0.1)">
      <use xlink:href="#SimHei-108"/>
      <use x="50" xlink:href="#SimHei-111"/>
      <use x="100" xlink:href="#SimHei-97"/>
      <use x="150" xlink:href="#SimHei-110"/>
      <use x="200" xlink:href="#SimHei-95"/>
      <use x="250" xlink:href="#SimHei-97"/>
      <use x="300" xlink:href="#SimHei-109"/>
      <use x="350" xlink:href="#SimHei-110"/>
      <use x="400" xlink:href="#SimHei-116"/>
     </g>
    </g>
   </g>
  </g>
 </g>
 <defs>
  <clipPath id="p63b9225229">
   <rect height="279.3925" width="411.40375" x="36.07625" y="26.655"/>
  </clipPath>
 </defs>
</svg>
